<svg width="216" height="48" viewBox="0 0 216 48" fill="none" xmlns="http://www.w3.org/2000/svg">
<path d="M23.4315 36.236C22.1165 35.4194 20.8016 35.2666 14.0759 35.0547C9.76615 34.9331 8.08315 34.8427 7.53263 34.69C6.89089 34.5404 6.61406 34.1446 6.61406 33.3872C6.61406 31.9035 7.04189 31.782 12.3017 31.782C16.7026 31.782 17.4671 31.8412 17.9893 32.1435C18.4485 32.4178 18.5398 32.689 18.5995 33.811H24.5923C24.6237 33.4183 24.6237 32.9944 24.6237 32.8729C24.6237 30.4792 24.133 29.2075 22.9124 28.3909C21.4748 27.4216 19.3357 27.1504 13.4027 27.1504C8.51097 27.1504 5.69863 27.272 4.50638 27.5151C1.69403 28.1197 0.593009 29.8465 0.593009 33.6957C0.593009 38.1497 1.99917 39.4214 7.04503 39.5742L8.69658 39.6365L11.9997 39.7861L16.8914 39.9669C18.8795 39.9981 19.3388 40.3004 19.3388 41.5129C19.3388 43.2988 19.3388 43.2988 12.6729 43.2988C8.30021 43.2988 7.62701 43.2396 7.04818 42.8749C6.56058 42.5726 6.43789 42.1799 6.43789 40.9674H0.413696V41.9368C0.413696 44.7233 0.872979 45.9046 2.27915 46.7835C3.71678 47.6936 6.19252 47.9648 12.5219 47.9648C18.6058 47.9648 21.1728 47.8152 22.3965 47.3601C24.5073 46.5716 25.363 44.8448 25.363 41.3321C25.3567 38.5082 24.8377 37.1461 23.4315 36.236Z" fill="white"/>
<path d="M26.3381 32.6022H35.42V47.6567H41.9318V32.6022H51.0137V27.4531H26.3381V32.6022Z" fill="white"/>
<path d="M78.4104 28.5436C76.8501 27.3623 74.9563 27.1504 66.4249 27.1504C57.8935 27.1504 55.9997 27.3623 54.4394 28.5436C52.8791 29.7249 52.423 31.7851 52.423 37.4204C52.423 43.3581 52.8508 45.356 54.4394 46.5684C55.9997 47.7497 57.8935 47.9617 66.4847 47.9617C74.9217 47.9617 76.8501 47.7497 78.4072 46.5684C79.9676 45.3871 80.4268 43.3581 80.4268 37.542C80.4268 31.7539 79.9676 29.7249 78.4104 28.5436ZM73.3048 41.9929C72.4806 42.5975 71.4708 42.7191 66.4847 42.7191C61.3476 42.7191 60.3693 42.6287 59.5451 41.9929C58.8121 41.4162 58.6265 40.5996 58.6265 38.0843C58.6265 35.5097 58.7492 34.3596 59.1172 33.6614C59.7275 32.4801 60.3095 32.3897 66.4249 32.3897C72.1125 32.3897 72.7857 32.4801 73.4872 33.2999C74.0377 33.9669 74.2202 35.117 74.2202 38.1155C74.2202 40.5684 74.0063 41.4474 73.3048 41.9929Z" fill="white"/>
<path d="M102.234 39.8734C102.202 42.8718 102.111 42.903 95.2939 42.903C88.7506 42.903 88.6594 42.8407 88.6594 37.6604C88.6594 34.5996 88.9048 33.4183 89.6378 32.8136C90.248 32.3274 91.3805 32.209 95.2624 32.209C99.1758 32.209 100.981 32.3897 101.438 32.7856C101.806 33.0879 101.865 33.3622 101.928 34.6931H108.135V33.6926C108.135 30.4512 107.525 28.9675 105.782 28.0886C104.376 27.3623 102.479 27.1504 97.0367 27.1504C86.3661 27.1504 84.1358 27.6647 83.0347 30.3919C82.5754 31.5139 82.4528 33.1783 82.4528 37.6916C82.4528 40.2661 82.5125 41.9336 82.6038 42.8407C82.8491 44.9009 83.4594 46.0199 84.8058 46.7804C86.4574 47.7186 89.0243 47.9617 97.0052 47.9617C101.529 47.9617 103.762 47.7809 105.414 47.2635C107.676 46.5373 108.531 45.0536 108.531 41.7809C108.531 41.4786 108.5 41.0235 108.468 39.8734H102.234Z" fill="white"/>
<path d="M148.31 17.5051L147.347 16.7539L120.243 34.7851H116.852V27.4542H110.646V47.6578H116.852V39.9342H120.243L129.388 47.6578H138.804L126.022 37.3596L148.31 17.5051Z" fill="#2BD411"/>
<path d="M151.616 26.6302L150.77 18.1679C150.591 18.1679 150.408 18.1585 150.229 18.1367L148.408 26.4494C149.468 26.6333 150.544 26.6957 151.616 26.6302Z" fill="#2BD411"/>
<path d="M146.328 11.3326L138.914 7.04688C138.404 7.98817 138.014 8.98869 137.747 10.0266L146.137 11.8219C146.193 11.6536 146.256 11.4915 146.328 11.3326Z" fill="#2BD411"/>
<path d="M147.728 9.5497C147.926 9.39074 148.14 9.24737 148.364 9.11957L144.897 1.33984C143.903 1.81984 142.975 2.41828 142.126 3.12581L145.171 6.36113L147.728 9.5497Z" fill="#2BD411"/>
<path d="M151.318 8.52109L153.127 0.205258C152.067 0.018245 150.991 -0.0409755 149.918 0.0275958L150.78 8.48992C150.959 8.48992 151.139 8.49927 151.318 8.52109Z" fill="#2BD411"/>
<path d="M145.995 14.3027L137.454 15.1505C137.602 16.2103 137.875 17.2451 138.272 18.2394L146.13 14.8139C146.076 14.6456 146.029 14.4773 145.995 14.3027Z" fill="#2BD411"/>
<path d="M160.462 4.07914C159.714 3.30615 158.877 2.62977 157.968 2.0625L153.652 9.41524C153.796 9.5181 153.935 9.6303 154.064 9.75186L160.462 4.07914Z" fill="#2BD411"/>
<path d="M155.231 15.3167L162.655 19.5868C163.161 18.6455 163.548 17.6481 163.815 16.6071L155.422 14.8242C155.366 14.9925 155.303 15.1577 155.231 15.3167Z" fill="#2BD411"/>
<path d="M155.558 12.3425L164.099 11.4853C163.951 10.4256 163.674 9.39077 163.275 8.39648L155.423 11.8344C155.476 11.9996 155.524 12.171 155.558 12.3425Z" fill="#2BD411"/>
<path d="M159.421 23.5374L156.549 20.4454L153.714 17.1914C153.545 17.3192 153.365 17.4345 153.183 17.5374L156.634 25.3265C157.634 24.8465 158.568 24.248 159.421 23.5374Z" fill="#2BD411"/>
<path d="M168.648 42.5669H167.487L162.844 27.4531H155.35L150.732 42.5669H149.6L144.227 27.5747L139.458 31.6266L145.473 47.6567H155.102L159.138 32.8422L163.237 47.6567H172.809L180.724 27.4531H174.15L168.648 42.5669Z" fill="white"/>
<path d="M188.283 27.4531H181.772V47.6598H188.283V27.4531Z" fill="white"/>
<path d="M200.178 42.81L215.099 32.0879V27.4531H190.671V32.5118L205.07 32.2998L190.335 42.9315V47.6567H215.558V42.598L200.178 42.81Z" fill="white"/>
</svg>
