<svg width="287" height="45" viewBox="0 0 287 45" fill="none" xmlns="http://www.w3.org/2000/svg">
<g clip-path="url(#clip0_42_2144)">
<path d="M23.0152 5.24882C25.7 7.62363 27.0425 10.9171 27.0427 15.1293C27.0605 17.4567 26.5697 19.76 25.6043 21.8786C24.6449 23.9666 23.101 25.6709 20.9726 26.9915C18.8443 28.3121 16.1112 28.9729 12.7735 28.9739H6.73196V43.5078H0V1.6875H11.8532C16.6079 1.6875 20.3286 2.87461 23.0152 5.24882ZM17.2325 21.3617C18.2977 20.6557 19.1366 19.6583 19.6489 18.4888C20.1051 17.4664 20.3499 16.3626 20.3685 15.2435C20.3644 13.4725 19.7668 11.7538 18.6707 10.3613C17.5392 8.8679 15.6309 8.12101 12.9458 8.12065H6.7316V22.5394H12.7731C14.6141 22.5394 16.1004 22.1468 17.2321 21.3617" fill="#E02020"/>
<path d="M62.6586 43.5076L53.2221 28.9741H46.4898V43.5079H39.7578V1.6875H51.5536C56.2324 1.6875 59.9818 2.87478 62.802 5.24935C65.6221 7.62392 67.0319 10.9174 67.0315 15.1298C67.0515 17.609 66.4897 20.0584 65.3911 22.2819C64.2978 24.4844 62.5815 26.1788 60.2421 27.3651L70.4256 43.5078L62.6586 43.5076ZM46.4898 22.5399H52.4744C55.1588 22.5399 57.1053 21.8028 58.3142 20.3285C59.4916 18.9404 60.1344 17.1784 60.127 15.3594C60.1177 14.2422 59.8827 13.1383 59.4362 12.1138C58.9334 10.971 58.1152 9.99466 57.0772 9.29889C55.9647 8.51469 54.5073 8.12212 52.7048 8.12118H46.4906L46.4898 22.5399Z" fill="#E02020"/>
<path d="M82.0507 11.9974C83.9326 8.75917 86.6174 6.05895 89.8471 4.15651C93.0865 2.23861 96.7832 1.22656 100.549 1.22656C104.316 1.22656 108.012 2.23861 111.252 4.15651C114.495 6.07332 117.198 8.78125 119.106 12.0263C121.022 15.2506 122.035 18.9294 122.04 22.6784C122.045 26.4273 121.041 30.1088 119.134 33.3382C117.233 36.5586 114.527 39.2308 111.28 41.0932C108.022 42.97 104.329 43.9604 100.567 43.9654C96.8063 43.9705 93.1098 42.9901 89.8471 41.1221C86.6148 39.2736 83.9261 36.6091 82.0507 33.3958C80.1662 30.144 79.1738 26.4535 79.1738 22.6966C79.1738 18.9397 80.1662 15.2492 82.0507 11.9974ZM88.0354 30.1209C89.3099 32.3516 91.144 34.2126 93.3574 35.521C95.5894 36.8586 98.1483 37.5544 100.752 37.5317C103.306 37.5569 105.816 36.8706 108.001 35.5498C110.181 34.236 111.976 32.374 113.209 30.15C114.478 27.8484 115.141 25.2627 115.136 22.6353C115.131 20.0079 114.458 17.4248 113.18 15.1281C111.922 12.879 110.096 10.9977 107.885 9.67104C105.67 8.35527 103.14 7.66075 100.563 7.66075C97.9857 7.66075 95.4562 8.35527 93.2414 9.67104C91.0466 11.0001 89.2407 12.8823 88.0052 15.1286C86.7193 17.4277 86.055 20.0214 86.0776 22.6546C86.051 25.2734 86.7265 27.8516 88.0342 30.122" fill="#E02020"/>
<path d="M158.576 5.24882C161.26 7.62351 162.603 10.917 162.604 15.1293C162.622 17.4567 162.131 19.7601 161.165 21.8786C160.206 23.9666 158.662 25.6709 156.534 26.9915C154.405 28.3121 151.672 28.9729 148.334 28.9739H142.293V43.5078H135.561V1.6875H147.414C152.17 1.6875 155.891 2.87461 158.576 5.24882ZM152.794 21.3617C153.859 20.6558 154.698 19.6584 155.21 18.4888C155.666 17.4666 155.911 16.3629 155.929 15.244C155.926 13.4731 155.328 11.7544 154.232 10.3619C153.101 8.86843 151.192 8.12153 148.507 8.12118H142.292V22.5399H148.334C150.175 22.5399 151.661 22.1473 152.793 21.3622" fill="#E02020"/>
<path d="M242.236 1.68609V44.9992H242.063L211.855 15.7601L212.028 43.5064H205.238V0.25H205.584L235.676 29.8339L235.562 1.68662L242.236 1.68609Z" fill="#E02020"/>
<path d="M286.195 1.6875V8.12065H265.136V19.2652H283.894V25.6983H265.136V37.072H287.001V43.5062H258.404V1.6875H286.195Z" fill="#E02020"/>
<path d="M178.218 18.0078H173.949V43.4736H178.218V18.0078Z" fill="#142258"/>
<path d="M185.087 8.83594H180.818V43.4742H185.087V8.83594Z" fill="#142258"/>
<path d="M191.956 0H187.688V43.4721H191.956V0Z" fill="#142258"/>
</g>
<defs>
<clipPath id="clip0_42_2144">
<rect width="287" height="45" fill="white"/>
</clipPath>
</defs>
</svg>
