<svg width="140" height="22" viewBox="0 0 140 22" fill="none" xmlns="http://www.w3.org/2000/svg">
<g clip-path="url(#clip0_344_19395)">
<path d="M11.2269 2.56819C12.5366 3.72853 13.1915 5.33773 13.1916 7.3958C13.2003 8.53299 12.9608 9.65839 12.4899 10.6935C12.0219 11.7137 11.2688 12.5465 10.2306 13.1917C9.19233 13.8369 7.85913 14.1598 6.23096 14.1603H3.28388V21.2616H0V0.828125H5.78203C8.10144 0.828125 9.9164 1.40815 11.2269 2.56819ZM8.40609 10.441C8.9257 10.096 9.33494 9.60869 9.58485 9.03726C9.80738 8.53772 9.92677 7.99839 9.93586 7.4516C9.93387 6.5863 9.64232 5.74656 9.10768 5.06618C8.55573 4.33648 7.62484 3.97155 6.31501 3.97138H3.28371V11.0164H6.23079C7.12881 11.0164 7.85385 10.8246 8.40592 10.441" fill="white"/>
<path d="M30.5656 21.2537L25.9625 14.1526H22.6784V21.2539H19.3945V0.820312H25.1486C27.4309 0.820312 29.2599 1.40042 30.6356 2.56064C32.0113 3.72086 32.699 5.33006 32.6988 7.38824C32.7085 8.59958 32.4345 9.79638 31.8986 10.8828C31.3653 11.9589 30.528 12.7868 29.3869 13.3665L34.3544 21.2538L30.5656 21.2537ZM22.6784 11.0088H25.5978C26.9072 11.0088 27.8567 10.6487 28.4464 9.92834C29.0208 9.2501 29.3343 8.38921 29.3307 7.50045C29.3262 6.95456 29.2116 6.4152 28.9938 5.91462C28.7485 5.35624 28.3493 4.87921 27.843 4.53925C27.3003 4.15609 26.5894 3.96428 25.7101 3.96382H22.6788L22.6784 11.0088Z" fill="white"/>
<path d="M40.0245 5.8642C40.9424 4.28201 42.2521 2.96267 43.8275 2.03314C45.4077 1.09605 47.211 0.601563 49.0482 0.601562C50.8853 0.601563 52.6886 1.09605 54.2688 2.03314C55.851 2.9697 57.1693 4.2928 58.1001 5.87833C59.0346 7.45372 59.529 9.2512 59.5314 11.0829C59.5339 12.9147 59.0443 14.7135 58.1139 16.2914C57.1865 17.8648 55.8663 19.1705 54.2827 20.0805C52.6936 20.9975 50.8917 21.4814 49.057 21.4839C47.2223 21.4863 45.4191 21.0073 43.8275 20.0946C42.2508 19.1914 40.9393 17.8895 40.0245 16.3195C39.1052 14.7307 38.6211 12.9275 38.6211 11.0919C38.6211 9.25623 39.1052 7.45305 40.0245 5.8642ZM42.9438 14.7194C43.5655 15.8093 44.4602 16.7186 45.5399 17.3579C46.6287 18.0114 47.8769 18.3514 49.1468 18.3403C50.3927 18.3526 51.6173 18.0173 52.6832 17.372C53.7463 16.73 54.6223 15.8203 55.2236 14.7336C55.8428 13.609 56.1662 12.3457 56.1637 11.0619C56.1612 9.77815 55.8328 8.51605 55.2093 7.39389C54.5957 6.29499 53.7053 5.37577 52.6264 4.72755C51.546 4.08466 50.3121 3.74532 49.0549 3.74532C47.7976 3.74532 46.5637 4.08466 45.4833 4.72755C44.4127 5.37692 43.5318 6.29657 42.9291 7.39415C42.3018 8.51749 41.9778 9.78476 41.9888 11.0713C41.9758 12.3509 42.3053 13.6106 42.9432 14.7199" fill="white"/>
<path d="M77.3541 2.56819C78.6635 3.72847 79.3184 5.33767 79.3187 7.3958C79.3275 8.533 79.088 9.65843 78.617 10.6935C78.1492 11.7137 77.3961 12.5465 76.3577 13.1917C75.3192 13.8369 73.986 14.1598 72.3581 14.1603H69.411V21.2616H66.127V0.828125H71.909C74.2291 0.828125 76.0441 1.40815 77.3541 2.56819ZM74.5333 10.441C75.053 10.0961 75.4622 9.60873 75.7121 9.03726C75.9346 8.53783 76.054 7.99857 76.063 7.45186C76.0611 6.58657 75.7696 5.74681 75.235 5.06643C74.683 4.33674 73.7521 3.97181 72.4421 3.97163H69.4108V11.0167H72.3579C73.2559 11.0167 73.981 10.8248 74.533 10.4412" fill="white"/>
<path d="M118.163 0.826678V21.9895H118.079L103.343 7.70325L103.427 21.2601H100.115V0.125H100.284L114.963 14.5797L114.907 0.826936L118.163 0.826678Z" fill="white"/>
<path d="M139.607 0.828125V3.97138H129.334V9.41661H138.485V12.5599H129.334V18.117H140V21.2608H126.051V0.828125H139.607Z" fill="white"/>
<path d="M86.9359 8.79688H84.8535V21.2395H86.9359V8.79688Z" fill="white"/>
<path d="M90.2875 4.3125H88.2051V21.2368H90.2875V4.3125Z" fill="white"/>
<path d="M93.6371 0H91.5547V21.2405H93.6371V0Z" fill="white"/>
</g>
<defs>
<clipPath id="clip0_344_19395">
<rect width="140" height="21.9871" fill="white"/>
</clipPath>
</defs>
</svg>
