<svg width="40" height="40" viewBox="0 0 40 40" fill="none" xmlns="http://www.w3.org/2000/svg">
<path d="M20 40C23.9556 40 27.8224 38.827 31.1114 36.6294C34.4004 34.4318 36.9638 31.3082 38.4776 27.6537C39.9913 23.9992 40.3874 19.9778 39.6157 16.0982C38.844 12.2186 36.9392 8.65492 34.1421 5.85787C31.3451 3.06082 27.7814 1.15601 23.9018 0.384301C20.0222 -0.387403 16.0009 0.00867128 12.3463 1.52242C8.69181 3.03618 5.56823 5.59962 3.37061 8.8886C1.17298 12.1776 0 16.0444 0 20C0.0103071 25.3012 2.12075 30.3823 5.86925 34.1308C9.61774 37.8793 14.6988 39.9897 20 40Z" fill="#F0F1FF"/>
<path d="M25.6647 28.3317V26.4057C25.6647 25.3843 25.2589 24.4048 24.5367 23.6826C23.8145 22.9604 22.835 22.5547 21.8137 22.5547H15.0737C14.0523 22.5547 13.0728 22.9604 12.3506 23.6826C11.6284 24.4048 11.2227 25.3843 11.2227 26.4057V28.3317" stroke="#737DF5" stroke-width="2" stroke-linecap="round" stroke-linejoin="round"/>
<path d="M22.2948 14.851C22.2948 15.6126 22.0689 16.3571 21.6458 16.9904C21.2227 17.6237 20.6213 18.1173 19.9177 18.4088C19.2141 18.7003 18.4398 18.7766 17.6929 18.6281C16.9459 18.4796 16.2597 18.1129 15.7211 17.5744C15.1824 17.0359 14.8156 16.3499 14.6669 15.6029C14.5182 14.856 14.5943 14.0817 14.8856 13.378C15.1769 12.6743 15.6704 12.0728 16.3035 11.6495C16.9367 11.2262 17.6812 11.0002 18.4428 11C19.4641 11 20.4436 11.4057 21.1658 12.1279C21.888 12.8501 22.2948 13.8297 22.2948 14.851Z" stroke="#737DF5" stroke-width="2" stroke-linecap="round" stroke-linejoin="round"/>
<path d="M29.5156 15.8125V21.5895" stroke="#737DF5" stroke-width="2" stroke-linecap="round" stroke-linejoin="round"/>
<path d="M32.4049 18.7031H26.6279" stroke="#737DF5" stroke-width="2" stroke-linecap="round" stroke-linejoin="round"/>
</svg>
