<svg width="41" height="40" viewBox="0 0 41 40" fill="none" xmlns="http://www.w3.org/2000/svg">
<path d="M20.5261 40C24.4817 40 28.3485 38.827 31.6375 36.6294C34.9265 34.4318 37.49 31.3082 39.0037 27.6537C40.5175 23.9992 40.9135 19.9778 40.1418 16.0982C39.3701 12.2186 37.4653 8.65492 34.6683 5.85787C31.8712 3.06082 28.3076 1.15601 24.4279 0.384301C20.5483 -0.387403 16.527 0.00867128 12.8725 1.52242C9.21793 3.03618 6.09436 5.59962 3.89673 8.8886C1.6991 12.1776 0.526123 16.0444 0.526123 20C0.53643 25.3012 2.64687 30.3823 6.39537 34.1308C10.1439 37.8793 15.225 39.9897 20.5261 40Z" fill="#F0F1FF"/>
<path d="M20.5261 30C22.5039 30 24.4373 29.4135 26.0818 28.3147C27.7263 27.2159 29.008 25.6542 29.7649 23.8269C30.5218 21.9996 30.7198 19.9889 30.334 18.0491C29.9481 16.1093 28.9957 14.3275 27.5972 12.929C26.1986 11.5304 24.4169 10.578 22.4771 10.1921C20.5372 9.80629 18.5266 10.0044 16.6993 10.7612C14.8721 11.5181 13.3102 12.7998 12.2114 14.4443C11.1126 16.0888 10.5261 18.0222 10.5261 20C10.5261 22.6522 11.5797 25.1957 13.4551 27.071C15.3304 28.9464 17.874 30 20.5261 30Z" stroke="#737DF5" stroke-width="2" stroke-linecap="round" stroke-linejoin="round"/>
<path d="M20.5261 14.02V14" stroke="#737DF5" stroke-width="2" stroke-linecap="round" stroke-linejoin="round"/>
<path d="M20.5261 18V26" stroke="#737DF5" stroke-width="2" stroke-linecap="round" stroke-linejoin="round"/>
</svg>
