<svg width="40" height="40" viewBox="0 0 40 40" fill="none" xmlns="http://www.w3.org/2000/svg">
<path d="M20 40C23.9556 40 27.8224 38.827 31.1114 36.6294C34.4004 34.4318 36.9638 31.3082 38.4776 27.6537C39.9913 23.9992 40.3874 19.9778 39.6157 16.0982C38.844 12.2186 36.9392 8.65492 34.1421 5.85787C31.3451 3.06082 27.7814 1.15601 23.9018 0.384301C20.0222 -0.387403 16.0009 0.00867128 12.3463 1.52242C8.69181 3.03618 5.56823 5.59962 3.37061 8.8886C1.17298 12.1776 0 16.0444 0 20C0.0103071 25.3012 2.12075 30.3823 5.86925 34.1308C9.61774 37.8793 14.6988 39.9897 20 40Z" fill="#FEEAEA"/>
<path d="M17.4697 27.184H14.0957C13.6488 27.184 13.2202 27.0067 12.9039 26.691C12.5876 26.3752 12.4095 25.9469 12.4087 25.5V13.687C12.4087 13.2396 12.5865 12.8105 12.9028 12.4941C13.2192 12.1777 13.6483 12 14.0957 12H17.4697" stroke="#E02020" stroke-width="2" stroke-linecap="round" stroke-linejoin="round"/>
<path d="M23.3738 23.81L27.5918 19.593L23.3738 15.375" stroke="#E02020" stroke-width="2" stroke-linecap="round" stroke-linejoin="round"/>
<path d="M27.5918 19.5938H17.4698" stroke="#E02020" stroke-width="2" stroke-linecap="round" stroke-linejoin="round"/>
</svg>
