<svg width="40" height="40" viewBox="0 0 40 40" fill="none" xmlns="http://www.w3.org/2000/svg">
<path d="M20 40C23.9556 40 27.8224 38.827 31.1114 36.6294C34.4004 34.4318 36.9638 31.3082 38.4776 27.6537C39.9913 23.9992 40.3874 19.9778 39.6157 16.0982C38.844 12.2186 36.9392 8.65492 34.1421 5.85787C31.3451 3.06082 27.7814 1.15601 23.9018 0.384301C20.0222 -0.387403 16.0009 0.00867128 12.3463 1.52242C8.69181 3.03618 5.56823 5.59962 3.37061 8.8886C1.17298 12.1776 0 16.0444 0 20C0.0103071 25.3012 2.12075 30.3823 5.86925 34.1308C9.61774 37.8793 14.6988 39.9897 20 40Z" fill="#F0F1FF"/>
<path d="M22.1772 19.9973C22.1772 20.4279 22.0496 20.8488 21.8104 21.2068C21.5711 21.5648 21.2311 21.8438 20.8333 22.0086C20.4355 22.1734 19.9978 22.2165 19.5755 22.1325C19.1532 22.0485 18.7653 21.8411 18.4609 21.5367C18.1564 21.2322 17.9491 20.8443 17.8651 20.422C17.7811 19.9997 17.8242 19.562 17.989 19.1642C18.1537 18.7664 18.4328 18.4264 18.7908 18.1872C19.1488 17.948 19.5697 17.8203 20.0002 17.8203C20.5776 17.8203 21.1313 18.0497 21.5396 18.4579C21.9479 18.8662 22.1772 19.4199 22.1772 19.9973Z" stroke="#737DF5" stroke-width="2" stroke-linecap="round" stroke-linejoin="round"/>
<path d="M26.727 22.727C26.6059 23.0013 26.5697 23.3055 26.6232 23.6005C26.6767 23.8955 26.8173 24.1677 27.027 24.382L27.082 24.437C27.2509 24.6059 27.385 24.8065 27.4764 25.0273C27.5678 25.248 27.6149 25.4846 27.6149 25.7235C27.6149 25.9624 27.5678 26.199 27.4764 26.4197C27.385 26.6405 27.2509 26.8411 27.082 27.01C26.9131 27.1789 26.7125 27.313 26.4917 27.4044C26.271 27.4958 26.0344 27.5429 25.7955 27.5429C25.5566 27.5429 25.32 27.4958 25.0993 27.4044C24.8785 27.313 24.6779 27.1789 24.509 27.01L24.454 26.955C24.2415 26.7491 23.9732 26.6101 23.6824 26.5552C23.3917 26.5003 23.0912 26.5319 22.8182 26.6462C22.5453 26.7604 22.3118 26.9522 22.1468 27.1978C21.9818 27.4435 21.8925 27.7321 21.89 28.028V28.183C21.89 28.6652 21.6985 29.1276 21.3575 29.4685C21.0166 29.8095 20.5542 30.001 20.072 30.001C19.5898 30.001 19.1274 29.8095 18.7865 29.4685C18.4455 29.1276 18.254 28.6652 18.254 28.183V28.1C18.247 27.799 18.1496 27.5071 17.9745 27.2623C17.7993 27.0174 17.5546 26.8309 17.272 26.727C16.9977 26.6059 16.6935 26.5697 16.3985 26.6232C16.1035 26.6767 15.8313 26.8173 15.617 27.027L15.562 27.082C15.3931 27.2509 15.1925 27.385 14.9717 27.4764C14.751 27.5678 14.5144 27.6149 14.2755 27.6149C13.793 27.6149 13.3302 27.4232 12.989 27.082C12.6478 26.7408 12.4561 26.278 12.4561 25.7955C12.4561 25.313 12.6478 24.8502 12.989 24.509L13.044 24.454C13.2499 24.2415 13.3889 23.9732 13.4438 23.6824C13.4987 23.3917 13.4671 23.0912 13.3528 22.8182C13.2386 22.5453 13.0468 22.3118 12.8012 22.1468C12.5555 21.9818 12.2669 21.8925 11.971 21.89H11.818C11.3358 21.89 10.8734 21.6985 10.5325 21.3575C10.1915 21.0166 10 20.5542 10 20.072C10 19.5898 10.1915 19.1274 10.5325 18.7865C10.8734 18.4455 11.3358 18.254 11.818 18.254H11.9C12.201 18.247 12.4929 18.1496 12.7377 17.9745C12.9826 17.7993 13.1691 17.5546 13.273 17.272C13.3941 16.9977 13.4303 16.6935 13.3768 16.3985C13.3233 16.1035 13.1827 15.8313 12.973 15.617L12.918 15.562C12.7439 15.3942 12.6051 15.1934 12.5095 14.9714C12.4139 14.7493 12.3636 14.5104 12.3614 14.2687C12.3592 14.027 12.4053 13.7872 12.4968 13.5635C12.5884 13.3397 12.7236 13.1365 12.8946 12.9656C13.0656 12.7947 13.269 12.6596 13.4928 12.5683C13.7166 12.4769 13.9564 12.431 14.1981 12.4334C14.4399 12.4358 14.6787 12.4863 14.9007 12.582C15.1227 12.6778 15.3234 12.8168 15.491 12.991L15.546 13.046C15.7603 13.2557 16.0325 13.3963 16.3275 13.4498C16.6225 13.5033 16.9267 13.4671 17.201 13.346H17.274C17.5429 13.2307 17.7722 13.0393 17.9337 12.7954C18.0953 12.5514 18.1819 12.2656 18.183 11.973V11.818C18.183 11.3358 18.3745 10.8734 18.7155 10.5325C19.0564 10.1915 19.5188 10 20.001 10C20.4832 10 20.9456 10.1915 21.2865 10.5325C21.6275 10.8734 21.819 11.3358 21.819 11.818V11.9C21.8215 12.1959 21.9108 12.4845 22.0758 12.7302C22.2408 12.9758 22.4743 13.1676 22.7472 13.2818C23.0202 13.3961 23.3207 13.4277 23.6114 13.3728C23.9022 13.3179 24.1705 13.1789 24.383 12.973L24.438 12.918C24.6069 12.7491 24.8075 12.615 25.0283 12.5236C25.249 12.4322 25.4856 12.3851 25.7245 12.3851C25.9634 12.3851 26.2 12.4322 26.4207 12.5236C26.6415 12.615 26.8421 12.7491 27.011 12.918C27.1799 13.0869 27.314 13.2875 27.4054 13.5083C27.4968 13.729 27.5439 13.9656 27.5439 14.2045C27.5439 14.4434 27.4968 14.68 27.4054 14.9007C27.314 15.1215 27.1799 15.3221 27.011 15.491L26.956 15.546C26.7463 15.7603 26.6057 16.0325 26.5522 16.3275C26.4987 16.6225 26.5349 16.9267 26.656 17.201V17.274C26.7713 17.5429 26.9627 17.7722 27.2066 17.9337C27.4506 18.0953 27.7364 18.1819 28.029 18.183H28.184C28.4227 18.183 28.6591 18.23 28.8797 18.3214C29.1003 18.4128 29.3007 18.5467 29.4695 18.7155C29.6383 18.8843 29.7723 19.0847 29.8636 19.3053C29.955 19.5259 30.002 19.7623 30.002 20.001C30.002 20.2397 29.955 20.4761 29.8636 20.6967C29.7723 20.9173 29.6383 21.1177 29.4695 21.2865C29.3007 21.4553 29.1003 21.5892 28.8797 21.6806C28.6591 21.772 28.4227 21.819 28.184 21.819H28.1C27.8074 21.8201 27.5216 21.9067 27.2776 22.0683C27.0337 22.2298 26.8423 22.4581 26.727 22.727Z" stroke="#737DF5" stroke-width="2" stroke-linecap="round" stroke-linejoin="round"/>
</svg>
