<svg width="40" height="40" viewBox="0 0 40 40" fill="none" xmlns="http://www.w3.org/2000/svg">
<path d="M20 40C23.9556 40 27.8224 38.827 31.1114 36.6294C34.4004 34.4318 36.9638 31.3082 38.4776 27.6537C39.9913 23.9992 40.3874 19.9778 39.6157 16.0982C38.844 12.2186 36.9392 8.65492 34.1421 5.85787C31.3451 3.06082 27.7814 1.15601 23.9018 0.384301C20.0222 -0.387403 16.0009 0.00867128 12.3463 1.52242C8.69181 3.03618 5.56823 5.59962 3.37061 8.8886C1.17298 12.1776 0 16.0444 0 20C0.0103071 25.3012 2.12075 30.3823 5.86925 34.1308C9.61774 37.8793 14.6988 39.9897 20 40Z" fill="#F0F1FF"/>
<path d="M13.9133 15.1922C13.9133 15.011 13.979 14.8359 14.0981 14.6993C14.2172 14.5627 14.3818 14.4739 14.5613 14.4492L14.6613 14.4422L26.4613 14.4422L23.6543 11.6422C23.5191 11.5089 23.4394 11.3293 23.4315 11.1395C23.4235 10.9498 23.4878 10.7641 23.6114 10.6199C23.735 10.4758 23.9087 10.3839 24.0975 10.3627C24.2862 10.3416 24.4759 10.3929 24.6283 10.5062L24.7123 10.5782L28.8123 14.6562C28.8359 14.6802 28.8579 14.7056 28.8783 14.7322L28.8123 14.6562C28.8496 14.692 28.8831 14.7316 28.9123 14.7742L28.9393 14.8192L28.9623 14.8632L28.9813 14.9082C28.9894 14.9275 28.9964 14.9472 29.0023 14.9672L29.0123 15.0032C29.0182 15.0246 29.0228 15.0463 29.0263 15.0682V15.1002C29.0298 15.1248 29.0318 15.1495 29.0323 15.1742V15.2032C29.0323 15.2279 29.0323 15.2522 29.0323 15.2762V15.1882C29.0322 15.2284 29.0288 15.2686 29.0223 15.3082C29.0192 15.3301 29.0149 15.3518 29.0093 15.3732L28.9993 15.4072C28.9932 15.429 28.9858 15.4503 28.9773 15.4712L28.9623 15.5052C28.9546 15.523 28.9459 15.5404 28.9363 15.5572L28.9083 15.6022L28.8853 15.6362L28.8783 15.6442C28.858 15.6707 28.8359 15.6957 28.8123 15.7192L24.7133 19.8022C24.5792 19.9358 24.3995 20.0136 24.2103 20.0202C24.0212 20.0268 23.8365 19.9616 23.6934 19.8377C23.5503 19.7138 23.4593 19.5404 23.4387 19.3523C23.4181 19.1641 23.4694 18.9751 23.5823 18.8232L23.6553 18.7392L26.4643 15.9392L14.6593 15.9392C14.4616 15.9382 14.2723 15.8591 14.1326 15.7192C13.9929 15.5793 13.9141 15.3899 13.9133 15.1922ZM11.1963 25.1212V25.1062C11.1963 25.0816 11.1963 25.0572 11.1963 25.0332V25.1212C11.1964 25.081 11.1998 25.0409 11.2063 25.0012C11.2089 24.978 11.2129 24.955 11.2183 24.9322L11.2293 24.8942C11.2349 24.8746 11.2416 24.8552 11.2493 24.8362L11.2673 24.7952C11.2745 24.7788 11.2825 24.7628 11.2913 24.7472L11.3133 24.7132C11.3216 24.6995 11.3306 24.6861 11.3403 24.6732L11.4133 24.5892L15.5133 20.5112C15.6475 20.3777 15.8271 20.2999 16.0163 20.2933C16.2055 20.2867 16.3901 20.3519 16.5332 20.4758C16.6763 20.5996 16.7673 20.773 16.7879 20.9612C16.8085 21.1493 16.7572 21.3383 16.6443 21.4902L16.5713 21.5742L13.7603 24.3722H25.5603C25.7502 24.3728 25.9327 24.4453 26.0712 24.5752C26.2097 24.7051 26.2937 24.8827 26.3064 25.0721C26.3191 25.2615 26.2595 25.4487 26.1396 25.5959C26.0197 25.7431 25.8484 25.8394 25.6603 25.8652L25.5603 25.8722H13.7613L16.5713 28.6722C16.6986 28.799 16.7762 28.9672 16.79 29.1463C16.8038 29.3254 16.7528 29.5035 16.6463 29.6482L16.5743 29.7322C16.4476 29.8596 16.2794 29.9372 16.1002 29.9509C15.9211 29.9647 15.743 29.9137 15.5983 29.8072L15.5133 29.7322L11.4133 25.6522L11.3733 25.6082L11.3503 25.5762L11.4133 25.6522C11.378 25.6155 11.3465 25.5753 11.3193 25.5322L11.2923 25.4892C11.2833 25.4752 11.2763 25.4602 11.2693 25.4452L11.2503 25.4002C11.2419 25.381 11.2346 25.3613 11.2283 25.3412L11.2183 25.3042C11.2129 25.2841 11.2086 25.2638 11.2053 25.2432V25.2062C11.2005 25.1818 11.1971 25.1571 11.1953 25.1322L11.1963 25.1212Z" fill="#737DF5"/>
<path d="M28.8123 14.6562L24.7123 10.5782L24.6283 10.5062C24.4759 10.3929 24.2862 10.3416 24.0975 10.3627C23.9087 10.3838 23.735 10.4758 23.6114 10.6199C23.4878 10.7641 23.4235 10.9498 23.4315 11.1395C23.4394 11.3293 23.5191 11.5089 23.6543 11.6422L26.4613 14.4422L14.6613 14.4422L14.5613 14.4492C14.3818 14.4739 14.2172 14.5627 14.0981 14.6993C13.979 14.8359 13.9133 15.011 13.9133 15.1922C13.9141 15.3899 13.9929 15.5793 14.1326 15.7192C14.2723 15.8591 14.4616 15.9382 14.6593 15.9392L26.4643 15.9392L23.6553 18.7392L23.5823 18.8232C23.4694 18.9751 23.4181 19.1641 23.4387 19.3523C23.4593 19.5404 23.5503 19.7138 23.6934 19.8377C23.8365 19.9616 24.0212 20.0268 24.2103 20.0202C24.3995 20.0136 24.5792 19.9358 24.7133 19.8022L28.8123 15.7192C28.8359 15.6957 28.858 15.6707 28.8783 15.6442L28.8853 15.6362L28.9083 15.6022L28.9363 15.5572C28.9459 15.5404 28.9546 15.523 28.9623 15.5052L28.9773 15.4712C28.9858 15.4503 28.9932 15.429 28.9993 15.4072L29.0093 15.3732C29.0149 15.3518 29.0192 15.3301 29.0223 15.3082C29.0288 15.2686 29.0322 15.2284 29.0323 15.1882V15.2762C29.0323 15.2522 29.0323 15.2279 29.0323 15.2032V15.1742C29.0318 15.1495 29.0298 15.1248 29.0263 15.1002V15.0682C29.0228 15.0463 29.0182 15.0246 29.0123 15.0032L29.0023 14.9672C28.9964 14.9472 28.9894 14.9275 28.9813 14.9082L28.9623 14.8632L28.9393 14.8192L28.9123 14.7742C28.8831 14.7316 28.8496 14.692 28.8123 14.6562ZM28.8123 14.6562C28.8359 14.6802 28.8579 14.7056 28.8783 14.7322L28.8123 14.6562ZM11.1963 25.1212V25.1062C11.1963 25.0816 11.1963 25.0572 11.1963 25.0332V25.1212ZM11.1963 25.1212C11.1964 25.081 11.1998 25.0409 11.2063 25.0012C11.2089 24.978 11.2129 24.955 11.2183 24.9322L11.2293 24.8942C11.2349 24.8746 11.2416 24.8552 11.2493 24.8362L11.2673 24.7952C11.2745 24.7788 11.2825 24.7628 11.2913 24.7472L11.3133 24.7132C11.3216 24.6995 11.3306 24.6861 11.3403 24.6732L11.4133 24.5892L15.5133 20.5112C15.6475 20.3777 15.8271 20.2999 16.0163 20.2933C16.2055 20.2867 16.3901 20.3519 16.5332 20.4758C16.6763 20.5996 16.7673 20.773 16.7879 20.9612C16.8085 21.1493 16.7572 21.3383 16.6443 21.4902L16.5713 21.5742L13.7603 24.3722H25.5603C25.7502 24.3728 25.9327 24.4453 26.0712 24.5752C26.2097 24.7051 26.2937 24.8827 26.3064 25.0721C26.3191 25.2615 26.2595 25.4487 26.1396 25.5959C26.0197 25.7431 25.8484 25.8394 25.6603 25.8652L25.5603 25.8722H13.7613L16.5713 28.6722C16.6986 28.799 16.7762 28.9672 16.79 29.1463C16.8038 29.3254 16.7528 29.5035 16.6463 29.6482L16.5743 29.7322C16.4476 29.8596 16.2794 29.9372 16.1002 29.9509C15.9211 29.9647 15.743 29.9137 15.5983 29.8072L15.5133 29.7322L11.4133 25.6522M11.1963 25.1212L11.1953 25.1322C11.1971 25.1571 11.2005 25.1818 11.2053 25.2062V25.2432C11.2086 25.2638 11.2129 25.2841 11.2183 25.3042L11.2283 25.3412C11.2346 25.3613 11.2419 25.381 11.2503 25.4002L11.2693 25.4452C11.2763 25.4602 11.2833 25.4752 11.2923 25.4892L11.3193 25.5322C11.3465 25.5753 11.378 25.6155 11.4133 25.6522M11.4133 25.6522L11.3733 25.6082L11.3503 25.5762L11.4133 25.6522Z" stroke="#737DF5" stroke-width="0.4"/>
</svg>
